<svg version="1.1" viewBox="0 0 180 180" xmlns="http://www.w3.org/2000/svg">
	<path transform="scale(1.0166 .98371)" d="m9.8371 0v182.98h95.883c19.814 0 34.977-4.3065 45.487-12.921 10.682-8.7872 16.024-21.194 16.024-37.218 0-10.51-3.1022-19.728-9.3049-27.654-6.0304-8.098-14.559-13.44-25.586-16.025 9.3041-2.4122 16.714-7.2355 22.228-14.472 5.6858-7.4088 8.5287-16.455 8.5287-27.137 0-15.507-5.3413-27.309-16.024-35.407-10.682-8.098-25.328-12.147-43.937-12.147h-93.299zm57.374 45.487h22.228c5.1689 0 8.9601 1.1195 11.372 3.3594 2.5845 2.0676 3.8753 5.3404 3.8753 9.8201 0 4.3074-1.2908 7.4964-3.8753 9.564-2.4122 2.0676-6.2033 3.1013-11.372 3.1013h-22.228v-25.845zm0 65.645h26.105c10.166 0 15.248 4.3943 15.248 13.182 0 4.4797-1.2927 7.7525-3.8772 9.8201-2.4122 1.8953-6.2014 2.8432-11.37 2.8432h-26.105v-25.845z" stroke-linecap="round" stroke-linejoin="round" stroke-width="484.59" style="paint-order:markers stroke fill"/>
</svg>
