<svg version="1.1" viewBox="0 0 180 180" xmlns="http://www.w3.org/2000/svg">
	<rect width="180" height="180" fill="#f5f7fb" stroke-linecap="round" stroke-linejoin="round" stroke-width="30" style="paint-order:markers stroke fill"/>
	<path d="m46 40.5v99h53.609c11.079 0 19.555-2.33 25.432-6.9909 5.9727-4.7542 8.959-11.466 8.959-20.136 0-5.6864-1.7344-10.673-5.2024-14.962-3.3715-4.3814-8.1399-7.2718-14.305-8.6705 5.2018-1.3051 9.345-3.9147 12.427-7.8298 3.179-4.0085 4.7684-8.9024 4.7684-14.682 0-8.39-2.9863-14.776-8.959-19.157-5.9726-4.3814-14.161-6.5721-24.566-6.5721zm32.079 24.61h12.427c2.89 0 5.0097 0.60571 6.3582 1.8175 1.4451 1.1186 2.1667 2.8894 2.1667 5.3131 0 2.3306-0.72169 4.0559-2.1667 5.1746-1.3487 1.1186-3.4683 1.6779-6.3582 1.6779h-12.427zm0 35.517h14.595c5.6836 0 8.525 2.3775 8.525 7.1317 0 2.4239-0.72279 4.1945-2.1678 5.3131-1.3487 1.0253-3.4673 1.5383-6.3572 1.5383h-14.595z" color="#000000" color-rendering="auto" dominant-baseline="auto" image-rendering="auto" shape-rendering="auto" solid-color="#000000" stop-color="#000000" stroke-width=".73334" style="-inkscape-stroke:none;font-feature-settings:normal;font-variant-alternates:normal;font-variant-caps:normal;font-variant-east-asian:normal;font-variant-ligatures:normal;font-variant-numeric:normal;font-variant-position:normal;font-variation-settings:normal;inline-size:0;isolation:auto;mix-blend-mode:normal;paint-order:markers stroke fill;shape-margin:0;shape-padding:0;text-decoration-color:#000000;text-decoration-line:none;text-decoration-style:solid;text-indent:0;text-orientation:mixed;text-transform:none;white-space:normal"/>
</svg>
